# xmcd
#
# Track frame offsets:
#	150
#	9562
#	20093
#	31249
#	39854
#	51817
#	64479
#	75358
#	85587
#	99927
#	107623
#	120145
#	130165
#	144420
#	157946
#	169304
#	180227
#	190050
#	200741
#	215586
#	228567
#	241188
#	260752
#	277447
#	288456
#	298306
#	310252
#	320605
#
# Disc length: 4400 seconds
#
# Revision: 0
# Processed by: cddbd v1.5.2PL0 Copyright (c) Steve Scherf et al.
# Submitted via: EZCDAudioConverter 1.5.5.1
#
DISCID=8e112e1c
DTITLE=KTO - Je nám pade!
DYEAR=2013
DGENRE=Country
TTITLE0=Bessie
TTITLE1=Marta
TTITLE2=Sejdy lejdy
TTITLE3=Posazavskej Dan
TTITLE4=Ja prijdu za tebou
TTITLE5=River boat
TTITLE6=Chajda na vode
TTITLE7=Ve straznim kosi
TTITLE8=Hej sup namornici
TTITLE9=Libam te dnes naposledy
TTITLE10=Hombre
TTITLE11=Ester
TTITLE12=Cesta morem
TTITLE13=Marinak
TTITLE14=Zradny banjo
TTITLE15=Placek v oudoli
TTITLE16=Zaprazi
TTITLE17=U tri louzi
TTITLE18=Tupodol
TTITLE19=Stada spi
TTITLE20=Cerna joyce
TTITLE21=Frajer Joe
TTITLE22=Zkuste to s nami
TTITLE23=Nelly Bly
TTITLE24=Linda
TTITLE25=Loudavy vlak
TTITLE26=Ponny express
TTITLE27=Uz neni Ohio
EXTD=
EXTT0=
EXTT1=
EXTT2=
EXTT3=
EXTT4=
EXTT5=
EXTT6=
EXTT7=
EXTT8=
EXTT9=
EXTT10=
EXTT11=
EXTT12=
EXTT13=
EXTT14=
EXTT15=
EXTT16=
EXTT17=
EXTT18=
EXTT19=
EXTT20=
EXTT21=
EXTT22=
EXTT23=
EXTT24=
EXTT25=
EXTT26=
EXTT27=
PLAYORDER=
